<?xml version="1.0" encoding="utf-8"?>
<!-- Generator: Adobe Illustrator 16.0.0, SVG Export Plug-In . SVG Version: 6.00 Build 0)  -->
<!DOCTYPE svg PUBLIC "-//W3C//DTD SVG 1.1//EN" "http://www.w3.org/Graphics/SVG/1.1/DTD/svg11.dtd">
<svg version="1.1" xmlns="http://www.w3.org/2000/svg" xmlns:xlink="http://www.w3.org/1999/xlink" x="0px" y="0px" width="240px"
	 height="240px" viewBox="0 0 240 240" enable-background="new 0 0 240 240" xml:space="preserve">
<g id="Layer_2">
	<rect fill="#B0E1FF" width="240" height="240"/>
</g>
<g id="Layer_4">
	<ellipse fill="#FFFFFF" cx="66.507" cy="23.468" rx="28.638" ry="23.454"/>
	<ellipse fill="#FFFFFF" cx="31.944" cy="30.134" rx="26.17" ry="16.788"/>
	<ellipse fill="#FFFFFF" cx="64.038" cy="48.65" rx="32.095" ry="15.06"/>
	<ellipse fill="#FFFFFF" cx="99.96" cy="37.293" rx="22.837" ry="17.035"/>
	<ellipse fill="#FFFFFF" cx="88.479" cy="20.389" rx="30.366" ry="13.461"/>
	<ellipse fill="#FFFFFF" cx="218.25" cy="52.28" rx="28.639" ry="23.454"/>
	<ellipse fill="#FFFFFF" cx="183.687" cy="58.946" rx="26.169" ry="16.788"/>
	<ellipse fill="#FFFFFF" cx="215.782" cy="77.462" rx="32.095" ry="15.06"/>
	<ellipse fill="#FFFFFF" cx="251.703" cy="66.105" rx="22.836" ry="17.035"/>
	<ellipse fill="#FFFFFF" cx="240.223" cy="49.201" rx="30.367" ry="13.461"/>
	<ellipse fill="#FFFFFF" cx="115.968" cy="115.667" rx="28.638" ry="23.454"/>
	<ellipse fill="#FFFFFF" cx="81.404" cy="122.332" rx="26.169" ry="16.789"/>
	<ellipse fill="#FFFFFF" cx="113.499" cy="140.849" rx="32.095" ry="15.06"/>
	<ellipse fill="#FFFFFF" cx="149.42" cy="129.492" rx="22.836" ry="17.035"/>
	<ellipse fill="#FFFFFF" cx="137.94" cy="112.587" rx="30.367" ry="13.462"/>
	<ellipse fill="#FFFFFF" cx="215.369" cy="184.816" rx="28.639" ry="23.454"/>
	<ellipse fill="#FFFFFF" cx="180.805" cy="191.481" rx="26.169" ry="16.788"/>
	<ellipse fill="#FFFFFF" cx="212.899" cy="209.998" rx="32.095" ry="15.059"/>
	<ellipse fill="#FFFFFF" cx="248.822" cy="198.641" rx="22.836" ry="17.035"/>
	<ellipse fill="#FFFFFF" cx="237.341" cy="181.737" rx="30.367" ry="13.463"/>
	<ellipse fill="#FFFFFF" cx="20.888" cy="186.736" rx="28.638" ry="23.454"/>
	<ellipse fill="#FFFFFF" cx="-13.676" cy="193.401" rx="26.17" ry="16.788"/>
	<ellipse fill="#FFFFFF" cx="18.419" cy="211.918" rx="32.095" ry="15.061"/>
	<ellipse fill="#FFFFFF" cx="54.341" cy="200.562" rx="22.837" ry="17.034"/>
	<ellipse fill="#FFFFFF" cx="42.86" cy="183.657" rx="30.366" ry="13.461"/>
</g>
<g id="Layer_3">
	<g>
		<defs>
			<rect id="SVGID_1_" x="46" y="120" width="32" height="192"/>
		</defs>
		<clipPath id="SVGID_2_">
			<use xlink:href="#SVGID_1_"  overflow="visible"/>
		</clipPath>
		<g clip-path="url(#SVGID_2_)">
			<defs>
				<path id="SVGID_3_" d="M47.047,213.44l-31.084-23.38l-0.032-46.685l31.05-23.306l31.084,23.379l0.033,46.686L47.047,213.44z
					 M78,312H16V191h62V312z"/>
			</defs>
			<clipPath id="SVGID_4_">
				<use xlink:href="#SVGID_3_"  overflow="visible"/>
			</clipPath>
			<rect x="16" y="138" clip-path="url(#SVGID_4_)" fill="#009245" width="62" height="174"/>
			<ellipse clip-path="url(#SVGID_4_)" fill="#C69C6D" cx="47.035" cy="119.792" rx="53.539" ry="29.126"/>
			<ellipse clip-path="url(#SVGID_4_)" fill="#009245" cx="47.015" cy="119.647" rx="15.31" ry="8.33"/>
		</g>
	</g>
	<g>
		<defs>
			<rect id="SVGID_5_" x="16" y="120" width="30" height="192"/>
		</defs>
		<clipPath id="SVGID_6_">
			<use xlink:href="#SVGID_5_"  overflow="visible"/>
		</clipPath>
		<g clip-path="url(#SVGID_6_)">
			<defs>
				<path id="SVGID_7_" d="M16.045,190.135l0.033-46.686l31.084-23.379l31.051,23.306l-0.033,46.685l-31.084,23.38L16.045,190.135z
					 M16,191h62v121H16V191z"/>
			</defs>
			<clipPath id="SVGID_8_">
				<use xlink:href="#SVGID_7_"  overflow="visible"/>
			</clipPath>
			<rect x="16" y="138" clip-path="url(#SVGID_8_)" fill="#0D723D" width="62" height="265"/>
			<ellipse clip-path="url(#SVGID_8_)" fill="#A67C52" cx="47.108" cy="119.792" rx="53.539" ry="29.126"/>
			<ellipse clip-path="url(#SVGID_8_)" fill="#0D723D" cx="47.128" cy="119.647" rx="15.31" ry="8.33"/>
		</g>
	</g>
	<g>
		<defs>
			<rect id="SVGID_9_" x="123" y="84" width="37" height="233"/>
		</defs>
		<clipPath id="SVGID_10_">
			<use xlink:href="#SVGID_9_"  overflow="visible"/>
		</clipPath>
		<g clip-path="url(#SVGID_10_)">
			<defs>
				<path id="SVGID_11_" d="M123.156,197.271l-37.644-28.314l-0.04-56.538l37.604-28.223l37.645,28.314l0.039,56.537
					L123.156,197.271z M160,317H86V170h74V317z"/>
			</defs>
			<clipPath id="SVGID_12_">
				<use xlink:href="#SVGID_11_"  overflow="visible"/>
			</clipPath>
			<rect x="86" y="106" clip-path="url(#SVGID_12_)" fill="#5267BD" width="74" height="211"/>
			<ellipse clip-path="url(#SVGID_12_)" fill="#C69C6D" cx="123.143" cy="83.857" rx="64.838" ry="35.275"/>
			<ellipse clip-path="url(#SVGID_12_)" fill="#5267BD" cx="123.118" cy="83.683" rx="18.541" ry="10.087"/>
		</g>
	</g>
	<g>
		<defs>
			<rect id="SVGID_13_" x="86" y="84" width="37" height="233"/>
		</defs>
		<clipPath id="SVGID_14_">
			<use xlink:href="#SVGID_13_"  overflow="visible"/>
		</clipPath>
		<g clip-path="url(#SVGID_14_)">
			<defs>
				<path id="SVGID_15_" d="M85.611,169.046l0.041-56.537l37.645-28.314l37.604,28.223l-0.041,56.538l-37.644,28.314L85.611,169.046
					z M86,170h75v147H86V170z"/>
			</defs>
			<clipPath id="SVGID_16_">
				<use xlink:href="#SVGID_15_"  overflow="visible"/>
			</clipPath>
			<rect x="86" y="106" clip-path="url(#SVGID_16_)" fill="#42538C" width="75" height="211"/>
			<ellipse clip-path="url(#SVGID_16_)" fill="#A67C52" cx="123.23" cy="83.857" rx="64.838" ry="35.275"/>
			<ellipse clip-path="url(#SVGID_16_)" fill="#42538C" cx="123.254" cy="83.683" rx="18.541" ry="10.087"/>
		</g>
	</g>
	<g>
		<defs>
			<rect id="SVGID_17_" x="198" y="120" width="31" height="192"/>
		</defs>
		<clipPath id="SVGID_18_">
			<use xlink:href="#SVGID_17_"  overflow="visible"/>
		</clipPath>
		<g clip-path="url(#SVGID_18_)">
			<defs>
				<path id="SVGID_19_" d="M198.32,213.405l-31.094-23.388l-0.033-46.702l31.061-23.313l31.096,23.389l0.033,46.701L198.32,213.405
					z M229,312h-62V191h62V312z"/>
			</defs>
			<clipPath id="SVGID_20_">
				<use xlink:href="#SVGID_19_"  overflow="visible"/>
			</clipPath>
			<rect x="167" y="138" clip-path="url(#SVGID_20_)" fill="#E74C3C" width="62" height="174"/>
			<ellipse clip-path="url(#SVGID_20_)" fill="#C69C6D" cx="198.309" cy="119.724" rx="53.557" ry="29.137"/>
			<ellipse clip-path="url(#SVGID_20_)" fill="#E74C3C" cx="198.289" cy="119.579" rx="15.315" ry="8.333"/>
		</g>
	</g>
	<g>
		<defs>
			<rect id="SVGID_21_" x="168" y="120" width="30" height="192"/>
		</defs>
		<clipPath id="SVGID_22_">
			<use xlink:href="#SVGID_21_"  overflow="visible"/>
		</clipPath>
		<g clip-path="url(#SVGID_22_)">
			<defs>
				<path id="SVGID_23_" d="M167.308,190.092l0.033-46.701l31.095-23.389l31.062,23.313l-0.032,46.702l-31.096,23.388
					L167.308,190.092z M168,191h62v121h-62V191z"/>
			</defs>
			<clipPath id="SVGID_24_">
				<use xlink:href="#SVGID_23_"  overflow="visible"/>
			</clipPath>
			<rect x="168" y="138" clip-path="url(#SVGID_24_)" fill="#C0392B" width="62" height="174"/>
			<ellipse clip-path="url(#SVGID_24_)" fill="#A67C52" cx="198.382" cy="119.724" rx="53.558" ry="29.137"/>
			<ellipse clip-path="url(#SVGID_24_)" fill="#C0392B" cx="198.402" cy="119.579" rx="15.315" ry="8.333"/>
		</g>
	</g>
</g>
</svg>
