<?xml version="1.0" encoding="UTF-8" standalone="no"?>
<svg
   xmlns:dc="http://purl.org/dc/elements/1.1/"
   xmlns:cc="http://creativecommons.org/ns#"
   xmlns:rdf="http://www.w3.org/1999/02/22-rdf-syntax-ns#"
   xmlns:svg="http://www.w3.org/2000/svg"
   xmlns="http://www.w3.org/2000/svg"
   xmlns:xlink="http://www.w3.org/1999/xlink"
   xmlns:sodipodi="http://sodipodi.sourceforge.net/DTD/sodipodi-0.dtd"
   xmlns:inkscape="http://www.inkscape.org/namespaces/inkscape"
   width="26"
   height="285.76868"
   id="svg2"
   version="1.1"
   inkscape:version="0.48.2 r9819"
   sodipodi:docname="icons.svg">
  <metadata
     id="metadata276">
    <rdf:RDF>
      <cc:Work
         rdf:about="">
        <dc:format>image/svg+xml</dc:format>
        <dc:type
           rdf:resource="http://purl.org/dc/dcmitype/StillImage" />
      </cc:Work>
    </rdf:RDF>
  </metadata>
  <sodipodi:namedview
     pagecolor="#000000"
     bordercolor="#666666"
     borderopacity="1"
     objecttolerance="10"
     gridtolerance="10"
     guidetolerance="10"
     inkscape:pageopacity="1"
     inkscape:pageshadow="2"
     inkscape:window-width="1440"
     inkscape:window-height="802"
     id="namedview274"
     showgrid="false"
     fit-margin-top="0"
     fit-margin-left="0"
     fit-margin-right="0"
     fit-margin-bottom="0"
     inkscape:zoom="4"
     inkscape:cx="-51.652717"
     inkscape:cy="266.56977"
     inkscape:window-x="1080"
     inkscape:window-y="22"
     inkscape:window-maximized="1"
     inkscape:current-layer="g113" />
  <title
     id="title4">
        Inkscape Icon Theme
    </title>
  <defs
     id="defs6">
    <linearGradient
       id="linearGradient8">
      <stop
         offset="0"
         stop-color="#fff"
         id="stop10" />
    </linearGradient>
    <linearGradient
       id="a"
       gradientTransform="matrix(0.677,-4.54,-2.4,-0.314,-2677.799,-5715.577)">
      <stop
         offset="0"
         stop-color="#fff"
         id="stop13" />
    </linearGradient>
    <linearGradient
       gradientTransform="translate(6,-19)"
       id="linearGradient15">
      <stop
         offset="0"
         stop-color="#fff"
         id="stop17" />
    </linearGradient>
    <linearGradient
       gradientTransform="translate(0,796.724)"
       id="linearGradient19">
      <stop
         offset="0"
         stop-color="#fff"
         id="stop21" />
    </linearGradient>
    <linearGradient
       gradientTransform="translate(0,-12)"
       id="linearGradient23">
      <stop
         offset="0"
         stop-color="#fff"
         id="stop25" />
    </linearGradient>
    <linearGradient
       gradientTransform="translate(0,-12)"
       id="linearGradient27">
      <stop
         offset="0"
         stop-color="#fff"
         id="stop29" />
    </linearGradient>
    <linearGradient
       gradientTransform="translate(0,-12)"
       id="linearGradient31">
      <stop
         offset="0"
         stop-color="#fff"
         id="stop33" />
    </linearGradient>
    <linearGradient
       gradientTransform="translate(0,-12)"
       id="linearGradient35">
      <stop
         offset="0"
         stop-color="#fff"
         id="stop37" />
    </linearGradient>
    <linearGradient
       gradientTransform="translate(0,-12)"
       id="linearGradient39">
      <stop
         offset="0"
         stop-color="#fff"
         id="stop41" />
    </linearGradient>
    <linearGradient
       gradientTransform="translate(0,-12)"
       id="linearGradient43">
      <stop
         offset="0"
         stop-color="#fff"
         id="stop45" />
    </linearGradient>
    <linearGradient
       gradientTransform="translate(0,-12)"
       id="linearGradient47">
      <stop
         offset="0"
         stop-color="#fff"
         id="stop49" />
    </linearGradient>
    <linearGradient
       gradientTransform="translate(0,-12)"
       id="linearGradient51">
      <stop
         offset="0"
         stop-color="#fff"
         id="stop53" />
    </linearGradient>
    <linearGradient
       gradientTransform="translate(0,-12)"
       id="linearGradient55">
      <stop
         offset="0"
         stop-color="#fff"
         id="stop57" />
    </linearGradient>
    <linearGradient
       gradientTransform="translate(0,-12)"
       id="linearGradient59">
      <stop
         offset="0"
         stop-color="#fff"
         id="stop61" />
    </linearGradient>
    <linearGradient
       id="linearGradient63">
      <stop
         offset="0"
         id="stop65" />
      <stop
         offset=".351"
         stop-color="#7f7f7f"
         id="stop67" />
      <stop
         offset=".597"
         stop-color="#bfbfbf"
         id="stop69" />
      <stop
         offset=".784"
         stop-color="#dfdfdf"
         id="stop71" />
      <stop
         offset="1"
         stop-color="#fff"
         id="stop73" />
    </linearGradient>
    <linearGradient
       xlink:href="#a"
       id="F"
       gradientTransform="scale(0.991,1.009)"
       x1="297.543"
       y1="984.31"
       x2="310.15201"
       y2="984.31"
       gradientUnits="userSpaceOnUse" />
    <linearGradient
       xlink:href="#a"
       id="G"
       gradientTransform="scale(0.98,1.021)"
       x1="295.539"
       y1="980.23297"
       x2="305.495"
       y2="980.23297"
       gradientUnits="userSpaceOnUse" />
    <linearGradient
       xlink:href="#a"
       id="H"
       gradientTransform="scale(2.291,0.436)"
       x1="129.621"
       y1="2319.613"
       x2="134.20399"
       y2="2319.613"
       gradientUnits="userSpaceOnUse" />
    <linearGradient
       xlink:href="#a"
       id="I"
       gradientTransform="scale(1.658,0.603)"
       x1="172.76601"
       y1="1678.813"
       x2="176.08299"
       y2="1678.813"
       gradientUnits="userSpaceOnUse" />
    <linearGradient
       xlink:href="#a"
       id="y"
       gradientTransform="scale(0.679,1.472)"
       x1="441.59"
       y1="591.29199"
       x2="450.422"
       y2="591.29199"
       gradientUnits="userSpaceOnUse" />
    <linearGradient
       xlink:href="#a"
       id="z"
       gradientTransform="scale(0.76,1.316)"
       x1="381.61499"
       y1="665.86401"
       x2="386.93301"
       y2="665.86401"
       gradientUnits="userSpaceOnUse" />
    <linearGradient
       xlink:href="#a"
       id="E"
       gradientTransform="scale(1.069,0.935)"
       x1="267.535"
       y1="945.40399"
       x2="275.017"
       y2="945.40399"
       gradientUnits="userSpaceOnUse" />
    <linearGradient
       xlink:href="#a"
       id="u"
       gradientTransform="scale(0.948,1.055)"
       x1="300.75201"
       y1="794.55103"
       x2="319.707"
       y2="794.55103"
       gradientUnits="userSpaceOnUse" />
    <linearGradient
       xlink:href="#a"
       id="v"
       gradientTransform="scale(2,0.5)"
       x1="152"
       y1="1716.724"
       x2="154"
       y2="1716.724"
       gradientUnits="userSpaceOnUse" />
    <linearGradient
       xlink:href="#a"
       id="w"
       gradientTransform="scale(2,0.5)"
       x1="152"
       y1="1674.724"
       x2="154"
       y2="1674.724"
       gradientUnits="userSpaceOnUse" />
    <linearGradient
       xlink:href="#a"
       id="x"
       gradientTransform="scale(0.316,3.162)"
       x1="964.495"
       y1="265.11301"
       x2="970.81897"
       y2="265.11301"
       gradientUnits="userSpaceOnUse" />
    <linearGradient
       xlink:href="#a"
       id="n"
       gradientTransform="scale(0.783,1.277)"
       x1="380.103"
       y1="617.72699"
       x2="384.64999"
       y2="617.72699"
       gradientUnits="userSpaceOnUse" />
    <linearGradient
       xlink:href="#a"
       id="o"
       gradientTransform="scale(0.925,1.082)"
       x1="322.64099"
       y1="715.94702"
       x2="333.746"
       y2="715.94702"
       gradientUnits="userSpaceOnUse" />
    <linearGradient
       xlink:href="#a"
       id="p"
       gradientTransform="scale(1.209,0.827)"
       x1="246.683"
       y1="949.68903"
       x2="251.39799"
       y2="949.68903"
       gradientUnits="userSpaceOnUse" />
    <linearGradient
       xlink:href="#a"
       id="q"
       gradientTransform="scale(0.795,1.258)"
       x1="361.133"
       y1="616.19598"
       x2="376.233"
       y2="616.19598"
       gradientUnits="userSpaceOnUse" />
    <linearGradient
       xlink:href="#a"
       id="r"
       x1="286"
       y1="793.362"
       x2="290"
       y2="793.362"
       gradientUnits="userSpaceOnUse" />
    <linearGradient
       xlink:href="#a"
       id="s"
       gradientTransform="scale(3.009,0.332)"
       x1="95.190002"
       y1="2393.2361"
       x2="98.552002"
       y2="2393.2361"
       gradientUnits="userSpaceOnUse" />
    <linearGradient
       xlink:href="#a"
       id="t"
       x1="286"
       y1="262"
       x2="290"
       y2="262"
       gradientUnits="userSpaceOnUse" />
    <linearGradient
       xlink:href="#a"
       id="k"
       gradientTransform="scale(1.031,0.97)"
       x1="-144.244"
       y1="-40.212002"
       x2="-139.66701"
       y2="-40.212002"
       gradientUnits="userSpaceOnUse" />
    <linearGradient
       xlink:href="#a"
       id="l"
       x1="82"
       y1="181"
       x2="94"
       y2="181"
       gradientUnits="userSpaceOnUse" />
    <linearGradient
       xlink:href="#a"
       id="m"
       gradientTransform="scale(0.881,1.135)"
       x1="323.59399"
       y1="654.70398"
       x2="335.603"
       y2="654.70398"
       gradientUnits="userSpaceOnUse" />
    <linearGradient
       xlink:href="#a"
       id="j"
       x1="286"
       y1="652.362"
       x2="308"
       y2="652.362"
       gradientUnits="userSpaceOnUse" />
    <linearGradient
       xlink:href="#a"
       id="i"
       x1="287"
       y1="110"
       x2="307"
       y2="110"
       gradientUnits="userSpaceOnUse" />
    <linearGradient
       xlink:href="#a"
       id="c"
       gradientTransform="scale(1.001,0.999)"
       x1="286.65799"
       y1="557.76703"
       x2="307.254"
       y2="557.76703"
       gradientUnits="userSpaceOnUse" />
    <linearGradient
       xlink:href="#a"
       id="d"
       x1="289"
       y1="559.362"
       x2="293"
       y2="559.362"
       gradientUnits="userSpaceOnUse" />
    <linearGradient
       xlink:href="#a"
       id="f"
       gradientTransform="scale(0.962,1.039)"
       x1="305.51901"
       y1="543.08301"
       x2="319.02899"
       y2="543.08301"
       gradientUnits="userSpaceOnUse" />
    <linearGradient
       xlink:href="#a"
       id="h"
       x1="286"
       y1="575.362"
       x2="289"
       y2="575.362"
       gradientUnits="userSpaceOnUse" />
    <linearGradient
       xlink:href="#a"
       id="b"
       gradientTransform="scale(0.806,1.24)"
       x1="360.94101"
       y1="426.785"
       x2="377.06601"
       y2="426.785"
       gradientUnits="userSpaceOnUse" />
    <linearGradient
       xlink:href="#a"
       x2="1"
       gradientUnits="userSpaceOnUse"
       gradientTransform="translate(0.31,10.254)"
       id="linearGradient103" />
    <linearGradient
       xlink:href="#a"
       id="J"
       x2="1"
       gradientUnits="userSpaceOnUse" />
    <linearGradient
       xlink:href="#a"
       id="K"
       x2="1"
       gradientUnits="userSpaceOnUse" />
    <linearGradient
       xlink:href="#a"
       id="L"
       x2="1"
       gradientUnits="userSpaceOnUse" />
    <linearGradient
       xlink:href="#a"
       gradientUnits="userSpaceOnUse"
       gradientTransform="scale(1.069,0.935)"
       x1="272.211"
       y1="928.29999"
       x2="279.69299"
       y2="928.29999"
       id="linearGradient108" />
    <linearGradient
       xlink:href="#a"
       id="e"
       gradientUnits="userSpaceOnUse"
       x1="286"
       y1="575.362"
       x2="289"
       y2="575.362" />
    <linearGradient
       xlink:href="#a"
       id="A"
       gradientUnits="userSpaceOnUse"
       gradientTransform="scale(1.069,0.935)"
       x1="9.8299999"
       y1="219.69501"
       x2="17.312"
       y2="219.69501" />
    <linearGradient
       xlink:href="#a"
       id="C"
       gradientUnits="userSpaceOnUse"
       gradientTransform="scale(1.069,0.935)"
       x1="272.211"
       y1="928.29999"
       x2="279.69299"
       y2="928.29999" />
    <linearGradient
       inkscape:collect="always"
       xlink:href="#a"
       id="linearGradient4243"
       gradientUnits="userSpaceOnUse"
       x1="286"
       y1="575.362"
       x2="289"
       y2="575.362" />
    <linearGradient
       inkscape:collect="always"
       xlink:href="#a"
       id="linearGradient4245"
       gradientUnits="userSpaceOnUse"
       gradientTransform="scale(1.069,0.935)"
       x1="9.8299999"
       y1="219.69501"
       x2="17.312"
       y2="219.69501" />
    <linearGradient
       inkscape:collect="always"
       xlink:href="#a"
       id="linearGradient4247"
       gradientUnits="userSpaceOnUse"
       gradientTransform="scale(1.069,0.935)"
       x1="272.211"
       y1="928.29999"
       x2="279.69299"
       y2="928.29999" />
  </defs>
  <g
     transform="matrix(0.92510628,0,0,0.92510628,0.18224593,-714.63383)"
     id="g113">
    <use
       transform="matrix(0.996,0,0,0.998,70.854,289.66)"
       width="1250"
       height="1250"
       xlink:href="#g5796"
       id="use115"
       x="0"
       y="0" />
    <use
       transform="matrix(0.988,0,0,0.998,71.431,310.221)"
       width="1250"
       height="1250"
       xlink:href="#g5796"
       id="use117"
       x="0"
       y="0" />
    <use
       transform="translate(233.282,665.083)"
       width="1250"
       height="1250"
       xlink:href="#rect4442"
       id="use119"
       x="0"
       y="0" />
    <g
       transform="matrix(1.1606173,0,0,1.1606173,-330.8119,160.45888)"
       id="g121">
      <rect
         width="24"
         height="24"
         x="284.96899"
         y="527.33099"
         id="rect123"
         style="color:#000000;fill:none" />
      <path
         d="m 291,530.771 v 15.118 h 1.296 l 2.592,-5.253 5.111,8.726 h 4 l -6.519,-9.927 h 6.118 v -1.618 l -12.599,-8.456 z"
         id="path125"
         style="fill:url(#b)"
         inkscape:connector-curvature="0" />
    </g>
    <g
       transform="matrix(1.1503867,0,0,1.1503867,-327.80941,190.01773)"
       id="g127">
      <rect
         width="24"
         height="24"
         x="285"
         y="555.401"
         id="rect129"
         style="color:#000000;fill:none" />
      <path
         d="m 287.5,577.401 c -0.5,-8 0.636,-12.357 3.965,-15.402 2.938,-2.688 7.535,-4.598 15.535,-4.098"
         id="path131"
         style="fill:none;stroke:url(#c)"
         inkscape:connector-curvature="0" />
      <rect
         width="4"
         height="4"
         x="289"
         y="559.362"
         id="rect133"
         style="color:#000000;fill:url(#d);fill-rule:evenodd" />
      <rect
         width="3"
         height="3"
         x="286"
         y="575.362"
         id="g"
         style="color:#000000;fill:url(#linearGradient4243);fill-rule:evenodd" />
      <path
         d="m 294,564.362 7.8,14.039 5.2,-5.265 -13,-8.774 z"
         id="path136"
         style="fill:url(#f);fill-rule:evenodd"
         inkscape:connector-curvature="0" />
      <use
         transform="translate(19,-19)"
         width="1250"
         height="1250"
         xlink:href="#g"
         id="use138"
         style="fill:url(#h)"
         x="0"
         y="0" />
    </g>
    <g
       transform="matrix(1.1606173,0,0,1.1606173,-330.84788,164.905)"
       id="g140">
      <rect
         width="24"
         height="24"
         x="285"
         y="620.362"
         id="rect142"
         style="fill:none" />
      <path
         d="m 287,622.362 v 20 h 20 v -20 h -20 z m 2,2 h 16 v 16 h -16 v -16 z"
         id="path144"
         style="fill:url(#i)"
         inkscape:connector-curvature="0" />
    </g>
    <g
       transform="matrix(1.1606173,0,0,1.1606173,-330.84788,100.82099)"
       id="g146">
      <rect
         width="24"
         height="24"
         x="285"
         y="651.362"
         id="rect148"
         style="fill:none" />
      <path
         d="m 297,652.362 c -6.075,0 -11,4.925 -11,11 0,6.075 4.925,11 11,11 6.075,0 11,-4.925 11,-11 0,-6.075 -4.925,-11 -11,-11 z m 0,1.833 c 5.063,0 9.167,4.104 9.167,9.167 0,5.063 -4.104,9.167 -9.167,9.167 -5.063,0 -9.167,-4.104 -9.167,-9.167 0,-5.063 4.104,-9.167 9.167,-9.167 z"
         id="path150"
         style="fill:url(#j)"
         inkscape:connector-curvature="0" />
    </g>
    <g
       transform="matrix(1.1503867,0,0,1.1411836,-327.81056,64.473804)"
       id="g152">
      <g
         transform="matrix(1.5,0,0,1.507,163.501,476.643)"
         id="g154">
        <path
           d="m 94.156,178 -1.875,2 c 1.329,0.026 2.665,1.212 2.719,2.438 l 2,-2 C 96.945,179.173 95.526,177.95 94.156,178 z"
           id="path156"
           style="fill:url(#k);fill-rule:evenodd"
           inkscape:connector-curvature="0" />
        <rect
           width="16"
           height="16"
           rx="0"
           ry="0"
           x="81"
           y="177"
           id="rect158"
           style="fill:none" />
        <path
           d="m 83.631,189.036 7.52,-8.034 c 1.369,-0.051 2.794,1.163 2.849,2.429 l -7.49,7.794 -4.51,1.776 z"
           id="path160"
           style="fill:url(#l);fill-rule:evenodd"
           inkscape:connector-curvature="0" />
      </g>
      <path
         d="m 288.373,756.229 c -5.786,-2.751 -0.318,-1.469 1.015,-2.971 0.843,-0.95 -0.549,-2.09 -1.322,-2.709 -0.812,-0.651 -1.638,-1.724 -1.736,-2.764 -0.134,-1.422 1.135,-2.513 1.933,-2.963 0.84,-0.474 2.185,-0.836 3.397,-0.633 1.305,0.218 2.707,0.944 3.149,1.389"
         id="path162"
         style="fill:none;stroke:url(#m);stroke-width:1.53699994;stroke-linecap:round;stroke-linejoin:round"
         inkscape:connector-curvature="0" />
    </g>
    <g
       transform="matrix(1.160391,0,0,1.1668893,-330.78339,37.532235)"
       id="g164">
      <path
         d="m 299.311,788.817 -1.584,4.509 c -0.419,1.225 1.3,1.879 1.736,0.609 l 1.76,-4.475 z"
         id="path166"
         style="fill:url(#n);fill-rule:evenodd"
         inkscape:connector-curvature="0" />
      <path
         d="m 298.305,782.761 0.793,1.181 5.924,2.423 1.561,-0.509 1.989,-5.502 c -2.5,0 -0.5,-6 -7,-6 l -3.268,8.408 z"
         id="path168"
         style="fill:url(#o);fill-rule:evenodd"
         inkscape:connector-curvature="0" />
      <path
         d="m 299,785.362 -0.702,2 5,1.899 0.702,-1.899 z"
         id="path170"
         style="fill:url(#p);fill-rule:evenodd"
         inkscape:connector-curvature="0" />
      <rect
         width="24"
         height="23.863001"
         x="285"
         y="774.362"
         id="rect172"
         style="color:#000000;fill:none" />
      <path
         d="m 289.157,793.883 c 11.661,-1.939 -1.678,-18.042 -1.678,-18.042 h 11.042"
         id="path174"
         style="fill:none;stroke:url(#q);stroke-width:0.958"
         inkscape:connector-curvature="0" />
      <path
         d="m 286,793.362 h 4 v 4 h -4 z"
         id="path176"
         style="color:#000000;fill:url(#r);fill-rule:evenodd"
         inkscape:connector-curvature="0" />
      <path
         d="m 287,795.88 h 9"
         id="path178"
         style="fill:none;stroke:url(#s);stroke-width:1.11699998"
         inkscape:connector-curvature="0" />
      <rect
         width="4"
         height="4"
         x="286"
         y="262"
         transform="translate(0,512.362)"
         id="rect180"
         style="fill:url(#t)" />
    </g>
    <g
       transform="matrix(1.1606172,0,0,1.1606172,-330.84785,-1.4736093)"
       id="g182">
      <rect
         width="24"
         height="24"
         x="285"
         y="836.362"
         id="rect184"
         style="fill:none" />
      <path
         d="m 291.107,838.362 -6.071,20 H 289 l 1.457,-5 h 6.585 l 1.993,5 h 3.964 l -6.607,-20 z m 2.643,4.5 2.672,7.5 h -5.286 z"
         id="path186"
         style="fill:url(#u)"
         inkscape:connector-curvature="0" />
      <path
         d="m 304,858.362 h 4 v 1 h -1 l -1,-1 -1,1 h -1 z"
         id="path188"
         style="fill:url(#v)"
         inkscape:connector-curvature="0" />
      <path
         d="m 304,837.362 h 1 l 1,1 1,-1 h 1 v 1 h -4 z"
         id="path190"
         style="fill:url(#w)"
         inkscape:connector-curvature="0" />
      <rect
         width="2"
         height="20"
         x="305"
         y="838.362"
         id="rect192"
         style="fill:url(#x)" />
    </g>
    <g
       transform="matrix(1.1606172,0,0,1.1606172,-330.84785,-9.3478636)"
       id="g194">
      <path
         d="M 300.459,870.364"
         style="text-indent:0;text-align:start;line-height:normal;text-transform:none;block-progression:tb;color:#000000;fill:url(#y);overflow:visible;enable-background:accumulate;font-family:Sans;-inkscape-font-specification:Sans"
         overflow="visible"
         id="path196"
         inkscape:connector-curvature="0" />
      <path
         d="M 293.483,876.363"
         style="text-indent:0;text-align:start;line-height:normal;text-transform:none;block-progression:tb;color:#000000;fill:url(#z);overflow:visible;enable-background:accumulate;font-family:Sans;-inkscape-font-specification:Sans"
         overflow="visible"
         id="path198"
         inkscape:connector-curvature="0" />
      <rect
         width="7.9990001"
         height="6.9990001"
         x="10.508"
         y="205.50999"
         transform="translate(280.492,662.852)"
         id="B"
         style="color:#000000;fill:url(#linearGradient4245)" />
      <use
         transform="translate(-4.999,16)"
         id="D"
         width="1250"
         height="1250"
         xlink:href="#B"
         style="fill:url(#linearGradient4247)"
         x="0"
         y="0" />
      <use
         transform="translate(15,0.001)"
         width="1250"
         height="1250"
         xlink:href="#D"
         id="use202"
         style="fill:url(#E)"
         x="0"
         y="0" />
      <rect
         width="24"
         height="24"
         x="285"
         y="867.362"
         id="rect204"
         style="fill:none" />
    </g>
    <g
       transform="matrix(1.1606172,0,0,1.1606172,-330.84785,-125.15951)"
       id="g206">
      <rect
         width="24"
         height="24"
         rx="0.99599999"
         ry="0"
         x="285"
         y="991.362"
         id="rect208"
         style="fill:none" />
      <path
         d="m 301.734,992.862 c -0.118,0.024 -0.239,0.104 -0.328,0.188 l -6.422,6 6.047,6.516 6.234,-5.813 c 0.355,-0.332 0.268,-1.024 -0.188,-1.547 l -4.172,-4.828 c -0.341,-0.392 -0.817,-0.588 -1.172,-0.516 z"
         id="path210"
         style="fill:url(#F)"
         inkscape:connector-curvature="0" />
      <path
         d="m 293.25,1000.69 -3.516,3.281 c -0.355,0.332 -0.314,1.024 0.141,1.547 l 4.219,4.828 c 0.455,0.523 1.098,0.66 1.453,0.328 l 3.703,-3.469 -6,-6.516 z"
         id="path212"
         style="fill:url(#G)"
         inkscape:connector-curvature="0" />
      <path
         d="m 298.05,1012.362 c -0.582,0 -1.05,0.446 -1.05,1 0,0.554 0.468,1 1.05,1 h 9.45 v -2 h -9.45 z"
         id="path214"
         style="fill:url(#H)"
         inkscape:connector-curvature="0" />
      <path
         d="m 290.717,1012.362 c 0.711,0 1.283,0.446 1.283,1 0,0.554 -0.572,1 -1.283,1 H 286.5 v -2 h 4.217 z"
         id="path216"
         style="fill:url(#I)"
         inkscape:connector-curvature="0" />
    </g>
    <use
       transform="matrix(0.693,0,0,0.71,-83.504,365.24)"
       width="1250"
       height="1250"
       xlink:href="#g5772"
       id="use218"
       x="0"
       y="0" />
    <use
       transform="matrix(0.696,0,0,0.742,-99.51,359.827)"
       width="1250"
       height="1250"
       xlink:href="#g5772"
       id="use220"
       x="0"
       y="0" />
    <use
       transform="matrix(0.696,0,0,0.742,-55.51,357.327)"
       width="1250"
       height="1250"
       xlink:href="#g5772"
       id="use222"
       x="0"
       y="0" />
    <use
       transform="matrix(0.629,0,0,1.162,19.249,255.105)"
       width="1250"
       height="1250"
       xlink:href="#g5772"
       id="use224"
       x="0"
       y="0" />
    <use
       transform="translate(772.32,383.918)"
       width="1250"
       height="1250"
       xlink:href="#rect10675"
       id="use226"
       x="0"
       y="0" />
    <use
       transform="translate(773.286,400.641)"
       width="1250"
       height="1250"
       xlink:href="#use5758"
       id="use228"
       x="0"
       y="0" />
    <use
       transform="translate(769.271,324.563)"
       width="1250"
       height="1250"
       xlink:href="#g6043"
       id="use230"
       x="0"
       y="0" />
    <use
       transform="translate(814.303,384.865)"
       width="1250"
       height="1250"
       xlink:href="#rect10675"
       id="use232"
       x="0"
       y="0" />
    <use
       transform="translate(802.303,396.865)"
       width="1250"
       height="1250"
       xlink:href="#rect10675"
       id="use234"
       x="0"
       y="0" />
    <use
       transform="translate(788.32,318.521)"
       width="1250"
       height="1250"
       xlink:href="#g6043"
       id="use236"
       x="0"
       y="0" />
    <use
       transform="translate(833.352,378.823)"
       width="1250"
       height="1250"
       xlink:href="#rect10675"
       id="use238"
       x="0"
       y="0" />
    <use
       transform="translate(821.352,390.823)"
       width="1250"
       height="1250"
       xlink:href="#rect10675"
       id="use240"
       x="0"
       y="0" />
    <use
       transform="matrix(1.138,0,0,1.14,580.987,388.472)"
       width="1250"
       height="1250"
       xlink:href="#use5756-0-3"
       id="use242"
       style="stroke:url(#J)"
       x="0"
       y="0" />
    <use
       transform="matrix(1.138,0,0,1.14,575.987,395.701)"
       width="1250"
       height="1250"
       xlink:href="#use5756-0-3"
       id="use244"
       style="stroke:url(#K)"
       x="0"
       y="0" />
    <use
       transform="matrix(1.138,0,0,1.14,588.58,399.351)"
       width="1250"
       height="1250"
       xlink:href="#use5756-0-3"
       id="use246"
       style="stroke:url(#L)"
       x="0"
       y="0" />
    <g
       transform="matrix(0.08851636,0,0,0.08665285,-4.5811589,798.92747)"
       id="g254"
       style="fill:none;stroke:#ffffff;stroke-width:19.34600067;stroke-linecap:round;stroke-linejoin:round">
      <line
         x1="343.39999"
         y1="161.89999"
         x2="343.70001"
         y2="161.3"
         id="line256" />
      <path
         d="m 265.2,330.9 c 6.1,-12.3 13.2,-25.2 21.6,-38.4 8.3,-13.2 16.3,-32.3 24.1,-57.6 7.7,-25.2 12.5,-38.6 14.2,-40.1 l 18.3,-32.7 v -0.2"
         id="path258"
         inkscape:connector-curvature="0" />
      <polyline
         points="343.4,161.9 343.4,161.9 343.7,161.3"
         id="polyline260" />
      <path
         d="m 117.2,187.5 c -2.4,-5.3 -6.9,-10.7 -13.6,-15.8 -7,-5.4 -13.1,-8.1 -18.2,-8.1 -9,0 -15.8,3.2 -20.4,9.6 -3.9,5.4 -5.9,12.5 -5.9,21.3 0,6.7 3.7,15.5 10.9,26.3 8.2,12.2 19.2,24 33,35.4 11.7,9.5 20.8,19.8 27.3,30.9 6.5,10.9 9.8,21.3 9.8,31 0,0.8 -0.2,3 -0.6,6.5 -0.3,3.3 -0.5,5.2 -0.7,5.9"
         id="path262"
         inkscape:connector-curvature="0" />
      <path
         d="m 117.2,187.5 c 0.6,1.8 4,9.7 10.3,23.3"
         id="path264"
         inkscape:connector-curvature="0" />
      <path
         d="m 343.7,161.3 11.2,-16.6 c 0.5,-1.2 1.4,-4.4 2.5,-9.6 0.5,-7.3 -1.7,-13.5 -6.8,-18.9 -4.9,-5 -11,-7.9 -18.2,-8.5 -5,-0.4 -9.3,0.8 -13.1,3.5 -3.5,3.3 -6.4,6 -8.8,8 l -32.7,44.7 30,-87 c 0.1,-0.3 0.3,-1.3 0.6,-3.2 0.2,-1.8 0.4,-3.1 0.4,-3.5 0,-7 -2.5,-13 -7.4,-18.1 -5.1,-5.3 -11.7,-8 -19.7,-8 -4.9,0 -9.5,1.6 -13.9,4.8 -4.8,3.4 -8.2,8 -10.2,13.7 l -31.5,86.5 c -0.8,-12.8 -2.1,-33.3 -4,-61.7 -1.2,-16.1 -1.7,-25.8 -1.4,-28.9 0.4,-6.4 -1.4,-12.6 -5.5,-18.6 -5,-7.3 -11.9,-10.9 -20.8,-10.9 -5,0 -9.6,1.1 -13.7,3.5 -6,3.4 -9.9,8.8 -11.7,16.3 l -1.8,98.9 -31.557,-72.773 C 134.155,70.839 132.7,66.1 127.6,61.5 c -5.3,-4.8 -11,-7.1 -17.1,-7.1 -5.6,0 -10.9,1.4 -15.9,4.3 -7.6,4.5 -11.3,11.5 -11.3,21.1 0,1.3 0.2,3.5 0.6,6.3 l 33.3,101.4"
         id="path266"
         inkscape:connector-curvature="0" />
    </g>
    <g
       id="g268"
       style="fill:none;stroke:#ffffff;stroke-width:1.33452201;stroke-miterlimit:4;stroke-dasharray:none"
       transform="matrix(0.97199462,0,0,0.97199462,-0.23933927,30.117233)">
      <path
         d="M 28.062843,1054.0942 1.266871,1080.8971"
         id="path270"
         inkscape:connector-curvature="0"
         style="stroke-width:1.33452201;stroke-miterlimit:4;stroke-dasharray:none" />
      <path
         d="m 1.5392381,1054.3666 26.2522279,26.2592"
         id="path272"
         inkscape:connector-curvature="0"
         style="stroke-width:1.33452201;stroke-miterlimit:4;stroke-dasharray:none" />
    </g>
  </g>
</svg>
