<?xml version="1.0" encoding="UTF-8" standalone="no"?>
<!-- Created with Inkscape (http://www.inkscape.org/) -->

<svg
   xmlns:dc="http://purl.org/dc/elements/1.1/"
   xmlns:cc="http://creativecommons.org/ns#"
   xmlns:rdf="http://www.w3.org/1999/02/22-rdf-syntax-ns#"
   xmlns:svg="http://www.w3.org/2000/svg"
   xmlns="http://www.w3.org/2000/svg"
   xmlns:xlink="http://www.w3.org/1999/xlink"
   xmlns:sodipodi="http://sodipodi.sourceforge.net/DTD/sodipodi-0.dtd"
   xmlns:inkscape="http://www.inkscape.org/namespaces/inkscape"
   version="1.1"
   width="30.009739"
   height="359.56601"
   id="svg15638"
   inkscape:version="0.48.2 r9819"
   sodipodi:docname="icons.svg">
  <sodipodi:namedview
     pagecolor="#000000"
     bordercolor="#666666"
     borderopacity="1"
     objecttolerance="10"
     gridtolerance="10"
     guidetolerance="10"
     inkscape:pageopacity="1"
     inkscape:pageshadow="2"
     inkscape:window-width="1440"
     inkscape:window-height="787"
     id="namedview3490"
     showgrid="false"
     fit-margin-top="0"
     fit-margin-left="0"
     fit-margin-right="0"
     fit-margin-bottom="0"
     inkscape:zoom="5.2321956"
     inkscape:cx="-42.317357"
     inkscape:cy="39.614899"
     inkscape:window-x="0"
     inkscape:window-y="0"
     inkscape:window-maximized="1"
     inkscape:current-layer="svg15638" />
  <title
     id="title9623">Inkscape Icon Theme</title>
  <defs
     id="defs15640">
    <linearGradient
       id="linearGradient16519">
      <stop
         id="stop16521"
         style="stop-color:#ffffff;stop-opacity:1"
         offset="0" />
    </linearGradient>
    <inkscape:path-effect
       effect="spiro"
       id="path-effect36695"
       is_visible="true" />
    <linearGradient
       id="linearGradient19282"
       gradientTransform="matrix(0.6770811,-4.5402355,-2.4004667,-0.31370616,-2677.7987,-5715.5769)">
      <stop
         id="stop19284"
         style="stop-color:#ffffff;stop-opacity:1"
         offset="0" />
    </linearGradient>
    <linearGradient
       id="linearGradient19282-4"
       gradientTransform="translate(6,-19)">
      <stop
         id="stop19284-5"
         style="stop-color:#ffffff;stop-opacity:1"
         offset="0" />
    </linearGradient>
    <linearGradient
       id="linearGradient19282-1"
       gradientTransform="translate(0,796.7244)">
      <stop
         id="stop19284-6"
         style="stop-color:#ffffff;stop-opacity:1"
         offset="0" />
    </linearGradient>
    <linearGradient
       id="linearGradient11833"
       gradientTransform="translate(0,-12)">
      <stop
         id="stop11835"
         style="stop-color:#ffffff;stop-opacity:1"
         offset="0" />
    </linearGradient>
    <linearGradient
       id="linearGradient11837"
       gradientTransform="translate(0,-12)">
      <stop
         id="stop11839"
         style="stop-color:#ffffff;stop-opacity:1"
         offset="0" />
    </linearGradient>
    <linearGradient
       id="linearGradient11841"
       gradientTransform="translate(0,-12)">
      <stop
         id="stop11843"
         style="stop-color:#ffffff;stop-opacity:1"
         offset="0" />
    </linearGradient>
    <linearGradient
       id="linearGradient11845"
       gradientTransform="translate(0,-12)">
      <stop
         id="stop11847"
         style="stop-color:#ffffff;stop-opacity:1"
         offset="0" />
    </linearGradient>
    <linearGradient
       id="linearGradient11849"
       gradientTransform="translate(0,-12)">
      <stop
         id="stop11851"
         style="stop-color:#ffffff;stop-opacity:1"
         offset="0" />
    </linearGradient>
    <linearGradient
       id="linearGradient11853"
       gradientTransform="translate(0,-12)">
      <stop
         id="stop11855"
         style="stop-color:#ffffff;stop-opacity:1"
         offset="0" />
    </linearGradient>
    <linearGradient
       id="linearGradient11857"
       gradientTransform="translate(0,-12)">
      <stop
         id="stop11859"
         style="stop-color:#ffffff;stop-opacity:1"
         offset="0" />
    </linearGradient>
    <linearGradient
       id="linearGradient19282-9"
       gradientTransform="translate(0,-12)">
      <stop
         id="stop19284-4"
         style="stop-color:#ffffff;stop-opacity:1"
         offset="0" />
    </linearGradient>
    <linearGradient
       id="linearGradient19282-9-3"
       gradientTransform="translate(0,-12)">
      <stop
         id="stop19284-4-1"
         style="stop-color:#ffffff;stop-opacity:1"
         offset="0" />
    </linearGradient>
    <linearGradient
       id="linearGradient19282-9-3-7"
       gradientTransform="translate(0,-12)">
      <stop
         id="stop19284-4-1-8"
         style="stop-color:#ffffff;stop-opacity:1"
         offset="0" />
    </linearGradient>
    <linearGradient
       id="linearGradient1610">
      <stop
         id="stop1611"
         style="stop-color:#000000;stop-opacity:1"
         offset="0" />
      <stop
         id="stop3053"
         style="stop-color:#7f7f7f;stop-opacity:1"
         offset="0.35076979" />
      <stop
         id="stop3054"
         style="stop-color:#bfbfbf;stop-opacity:1"
         offset="0.59668732" />
      <stop
         id="stop3055"
         style="stop-color:#dfdfdf;stop-opacity:1"
         offset="0.78382427" />
      <stop
         id="stop1612"
         style="stop-color:#ffffff;stop-opacity:1"
         offset="1" />
    </linearGradient>
    <linearGradient
       inkscape:collect="always"
       xlink:href="#linearGradient19282"
       id="linearGradient3492"
       gradientTransform="scale(0.99140081,1.0086738)"
       x1="297.543"
       y1="984.30963"
       x2="310.15161"
       y2="984.30963"
       gradientUnits="userSpaceOnUse" />
    <linearGradient
       inkscape:collect="always"
       xlink:href="#linearGradient19282"
       id="linearGradient3494"
       gradientTransform="scale(0.97955662,1.02087)"
       x1="295.5387"
       y1="980.23279"
       x2="305.49536"
       y2="980.23279"
       gradientUnits="userSpaceOnUse" />
    <linearGradient
       inkscape:collect="always"
       xlink:href="#linearGradient19282"
       id="linearGradient3496"
       gradientTransform="scale(2.2912878,0.43643578)"
       x1="129.62143"
       y1="2319.6133"
       x2="134.20399"
       y2="2319.6133"
       gradientUnits="userSpaceOnUse" />
    <linearGradient
       inkscape:collect="always"
       xlink:href="#linearGradient19282"
       id="linearGradient3498"
       gradientTransform="scale(1.6583124,0.60302269)"
       x1="172.76601"
       y1="1678.8127"
       x2="176.08263"
       y2="1678.8127"
       gradientUnits="userSpaceOnUse" />
    <linearGradient
       inkscape:collect="always"
       xlink:href="#linearGradient19282"
       id="linearGradient3500"
       gradientTransform="scale(0.67936361,1.4719658)"
       x1="441.58975"
       y1="591.29242"
       x2="450.42154"
       y2="591.29242"
       gradientUnits="userSpaceOnUse" />
    <linearGradient
       inkscape:collect="always"
       xlink:href="#linearGradient19282"
       id="linearGradient3502"
       gradientTransform="scale(0.75980489,1.3161274)"
       x1="381.61459"
       y1="665.86426"
       x2="386.93262"
       y2="665.86426"
       gradientUnits="userSpaceOnUse" />
    <linearGradient
       inkscape:collect="always"
       xlink:href="#linearGradient19282"
       id="linearGradient3508"
       gradientTransform="scale(1.0690238,0.93543286)"
       x1="267.53503"
       y1="945.40424"
       x2="275.01727"
       y2="945.40424"
       gradientUnits="userSpaceOnUse" />
    <linearGradient
       inkscape:collect="always"
       xlink:href="#linearGradient19282"
       id="linearGradient3510"
       gradientTransform="scale(0.94774179,1.0551397)"
       x1="300.7525"
       y1="794.55084"
       x2="319.70734"
       y2="794.55084"
       gradientUnits="userSpaceOnUse" />
    <linearGradient
       inkscape:collect="always"
       xlink:href="#linearGradient19282"
       id="linearGradient3512"
       gradientTransform="scale(2,0.5)"
       x1="152"
       y1="1716.7244"
       x2="154"
       y2="1716.7244"
       gradientUnits="userSpaceOnUse" />
    <linearGradient
       inkscape:collect="always"
       xlink:href="#linearGradient19282"
       id="linearGradient3514"
       gradientTransform="scale(2,0.5)"
       x1="152"
       y1="1674.7244"
       x2="154"
       y2="1674.7244"
       gradientUnits="userSpaceOnUse" />
    <linearGradient
       inkscape:collect="always"
       xlink:href="#linearGradient19282"
       id="linearGradient3516"
       gradientTransform="scale(0.31622777,3.1622777)"
       x1="964.49469"
       y1="265.1134"
       x2="970.81921"
       y2="265.1134"
       gradientUnits="userSpaceOnUse" />
    <linearGradient
       inkscape:collect="always"
       xlink:href="#linearGradient19282"
       id="linearGradient3518"
       gradientTransform="scale(0.78310491,1.2769681)"
       x1="380.10324"
       y1="617.72662"
       x2="384.65048"
       y2="617.72662"
       gradientUnits="userSpaceOnUse" />
    <linearGradient
       inkscape:collect="always"
       xlink:href="#linearGradient19282"
       id="linearGradient3520"
       gradientTransform="scale(0.9245744,1.0815787)"
       x1="322.64069"
       y1="715.94727"
       x2="333.74631"
       y2="715.94727"
       gradientUnits="userSpaceOnUse" />
    <linearGradient
       inkscape:collect="always"
       xlink:href="#linearGradient19282"
       id="linearGradient3522"
       gradientTransform="scale(1.2092368,0.8269679)"
       x1="246.68321"
       y1="949.68884"
       x2="251.39824"
       y2="949.68884"
       gradientUnits="userSpaceOnUse" />
    <linearGradient
       inkscape:collect="always"
       xlink:href="#linearGradient19282"
       id="linearGradient3524"
       gradientTransform="scale(0.79472051,1.258304)"
       x1="361.13324"
       y1="616.19629"
       x2="376.23291"
       y2="616.19629"
       gradientUnits="userSpaceOnUse" />
    <linearGradient
       inkscape:collect="always"
       xlink:href="#linearGradient19282"
       id="linearGradient3526"
       x1="286"
       y1="793.36218"
       x2="290"
       y2="793.36218"
       gradientUnits="userSpaceOnUse" />
    <linearGradient
       inkscape:collect="always"
       xlink:href="#linearGradient19282"
       id="linearGradient3528"
       gradientTransform="scale(3.0091442,0.3323204)"
       x1="95.1903"
       y1="2393.2358"
       x2="98.55249"
       y2="2393.2358"
       gradientUnits="userSpaceOnUse" />
    <linearGradient
       inkscape:collect="always"
       xlink:href="#linearGradient19282"
       id="linearGradient3530"
       x1="286"
       y1="262"
       x2="290"
       y2="262"
       gradientUnits="userSpaceOnUse" />
    <linearGradient
       inkscape:collect="always"
       xlink:href="#linearGradient19282"
       id="linearGradient3532"
       gradientTransform="scale(1.031025,0.9699086)"
       x1="-144.24359"
       y1="-40.211555"
       x2="-139.66684"
       y2="-40.211555"
       gradientUnits="userSpaceOnUse" />
    <linearGradient
       inkscape:collect="always"
       xlink:href="#linearGradient19282"
       id="linearGradient3534"
       x1="82.000153"
       y1="181.00011"
       x2="94.000145"
       y2="181.00011"
       gradientUnits="userSpaceOnUse" />
    <linearGradient
       inkscape:collect="always"
       xlink:href="#linearGradient19282"
       id="linearGradient3536"
       gradientTransform="scale(0.88073357,1.1354172)"
       x1="323.5939"
       y1="654.70404"
       x2="335.60291"
       y2="654.70404"
       gradientUnits="userSpaceOnUse" />
    <linearGradient
       inkscape:collect="always"
       xlink:href="#linearGradient19282"
       id="linearGradient3538"
       x1="286"
       y1="652.36218"
       x2="308"
       y2="652.36218"
       gradientUnits="userSpaceOnUse" />
    <linearGradient
       inkscape:collect="always"
       xlink:href="#linearGradient19282"
       id="linearGradient3540"
       x1="287"
       y1="110"
       x2="307"
       y2="110"
       gradientUnits="userSpaceOnUse" />
    <linearGradient
       inkscape:collect="always"
       xlink:href="#linearGradient19282"
       id="linearGradient3542"
       gradientTransform="scale(1.0008002,0.99920041)"
       x1="286.65793"
       y1="557.76715"
       x2="307.25412"
       y2="557.76715"
       gradientUnits="userSpaceOnUse" />
    <linearGradient
       inkscape:collect="always"
       xlink:href="#linearGradient19282"
       id="linearGradient3544"
       x1="289"
       y1="559.36218"
       x2="293"
       y2="559.36218"
       gradientUnits="userSpaceOnUse" />
    <linearGradient
       inkscape:collect="always"
       xlink:href="#linearGradient19282"
       id="linearGradient3548"
       gradientTransform="scale(0.96229569,1.0391816)"
       x1="305.51941"
       y1="543.08331"
       x2="319.02875"
       y2="543.08331"
       gradientUnits="userSpaceOnUse" />
    <linearGradient
       inkscape:collect="always"
       xlink:href="#linearGradient19282"
       id="linearGradient3550"
       x1="286"
       y1="575.36218"
       x2="289"
       y2="575.36218"
       gradientUnits="userSpaceOnUse" />
    <linearGradient
       inkscape:collect="always"
       xlink:href="#linearGradient19282"
       id="linearGradient3552"
       gradientTransform="scale(0.80622577,1.2403473)"
       x1="360.94107"
       y1="426.78543"
       x2="377.06558"
       y2="426.78543"
       gradientUnits="userSpaceOnUse" />
    <linearGradient
       inkscape:collect="always"
       xlink:href="#linearGradient19282"
       id="linearGradient3690"
       x1="0"
       y1="0"
       x2="1"
       y2="0"
       gradientUnits="userSpaceOnUse"
       gradientTransform="translate(0.31009391,10.254489)" />
    <linearGradient
       inkscape:collect="always"
       xlink:href="#linearGradient19282"
       id="linearGradient3698"
       x1="0"
       y1="0"
       x2="1"
       y2="0"
       gradientUnits="userSpaceOnUse" />
    <linearGradient
       inkscape:collect="always"
       xlink:href="#linearGradient19282"
       id="linearGradient3700"
       x1="0"
       y1="0"
       x2="1"
       y2="0"
       gradientUnits="userSpaceOnUse" />
    <linearGradient
       inkscape:collect="always"
       xlink:href="#linearGradient19282"
       id="linearGradient3702"
       x1="0"
       y1="0"
       x2="1"
       y2="0"
       gradientUnits="userSpaceOnUse" />
    <linearGradient
       inkscape:collect="always"
       xlink:href="#linearGradient19282"
       id="linearGradient4344"
       gradientUnits="userSpaceOnUse"
       gradientTransform="scale(1.0690238,0.93543286)"
       x1="272.21097"
       y1="928.29987"
       x2="279.69318"
       y2="928.29987" />
    <linearGradient
       inkscape:collect="always"
       xlink:href="#linearGradient19282"
       id="linearGradient4346"
       gradientUnits="userSpaceOnUse"
       x1="286"
       y1="575.36218"
       x2="289"
       y2="575.36218" />
    <linearGradient
       inkscape:collect="always"
       xlink:href="#linearGradient19282"
       id="linearGradient4348"
       gradientUnits="userSpaceOnUse"
       gradientTransform="scale(1.0690238,0.93543286)"
       x1="9.8298092"
       y1="219.69476"
       x2="17.312037"
       y2="219.69476" />
    <linearGradient
       inkscape:collect="always"
       xlink:href="#linearGradient19282"
       id="linearGradient4350"
       gradientUnits="userSpaceOnUse"
       gradientTransform="scale(1.0690238,0.93543286)"
       x1="272.21097"
       y1="928.29987"
       x2="279.69318"
       y2="928.29987" />
  </defs>
  <metadata
     id="metadata15643">
    <rdf:RDF>
      <cc:Work
         rdf:about="">
        <dc:format>image/svg+xml</dc:format>
        <dc:type
           rdf:resource="http://purl.org/dc/dcmitype/StillImage" />
        <dc:title>Inkscape Icon Theme</dc:title>
        <dc:creator>
          <cc:Agent>
            <dc:title>Barbara Muraus</dc:title>
          </cc:Agent>
        </dc:creator>
        <dc:contributor>
          <cc:Agent>
            <dc:title>Jakub Steiner, Josh Andler</dc:title>
          </cc:Agent>
        </dc:contributor>
      </cc:Work>
    </rdf:RDF>
  </metadata>
  <g
     transform="translate(0.20162136,-722.35183)"
     id="layer1">
    <g
       transform="translate(-24.189906,512.11667)"
       id="zoom-original">
      <g
         transform="matrix(0.996399,0,0,1,95.08523,-222.9354)"
         id="zoom_1_to_1">
        <use
           transform="matrix(1,0,0,0.997925,-0.04089,0.477615)"
           id="use5816"
           x="0"
           y="0"
           width="1250"
           height="1250"
           xlink:href="#g5796" />
      </g>
    </g>
    <g
       transform="matrix(0.99218952,0,0,1,-22.853208,512.67917)"
       id="zoom-half-size">
      <use
         transform="matrix(0.996399,0,0,0.997925,95.044487,-202.45778)"
         id="use5818"
         x="0"
         y="0"
         width="1250"
         height="1250"
         xlink:href="#g5796" />
    </g>
    <g
       transform="matrix(1,0,0,0.99801946,0.31009391,31.330702)"
       id="g11074" />
    <g
       id="g11109"
       transform="translate(0.31009391,10.254489)" />
    <g
       id="g11198"
       transform="translate(0.31009391,10.254489)" />
    <g
       transform="translate(20.310094,10.254489)"
       id="g11329" />
    <g
       transform="translate(-22.689906,29.75449)"
       id="zoom-fit-selection">
      <g
         transform="translate(0,20)"
         id="g11156">
        <g
           transform="translate(0,19.96825)"
           id="g11158">
          <g
             transform="matrix(1,0,0,0.99801946,0,21.076212)"
             id="g11160" />
        </g>
      </g>
    </g>
    <g
       transform="translate(-22.689906,69.75449)"
       id="g11563">
      <g
         id="g11565">
        <g
           transform="translate(0,20)"
           id="g11567">
          <g
             transform="translate(0,19.96825)"
             id="g11569">
            <g
               transform="matrix(1,0,0,0.99801946,0,21.076212)"
               id="g11571" />
          </g>
        </g>
      </g>
    </g>
    <g
       transform="translate(63.310094,110.25449)"
       id="g11647" />
    <g
       transform="matrix(-1,0,0,1,102.31009,110.25449)"
       id="g11659" />
    <rect
       width="0"
       height="1"
       ry="0"
       x="118.3101"
       y="627.61664"
       id="rect19405"
       style="opacity:0.3;fill:url(#linearGradient3690);fill-opacity:1;stroke:none" />
    <g
       id="g39728"
       transform="translate(0.31009391,10.254489)" />
    <g
       transform="translate(-395.34636,337.27292)"
       id="g39833" />
    <use
       transform="translate(233.28219,665.08252)"
       id="use5704"
       x="0"
       y="0"
       width="1250"
       height="1250"
       xlink:href="#rect4442" />
    <g
       transform="matrix(1.249998,0,0,1.2499994,-356.40761,63.188477)"
       id="tool-pointer">
      <rect
         width="24"
         height="24"
         x="284.96875"
         y="527.33093"
         id="rect10522"
         style="color:#000000;fill:none;stroke:none;stroke-width:1;marker:none;display:inline" />
      <path
         d="m 291,530.77148 0,15.11799 1.29623,0 2.59246,-5.25287 5.11131,8.72558 4,0 -6.51885,-9.92655 6.11774,0 0,-1.61763 L 291,529.36218 z"
         id="path8245"
         style="fill:url(#linearGradient3552);fill-opacity:1;stroke:none"
         inkscape:connector-curvature="0" />
    </g>
    <g
       transform="matrix(1.249998,0,0,1.2499994,-356.44667,88.101464)"
       id="tool-node-editor">
      <rect
         width="24"
         height="24"
         x="285"
         y="555.40088"
         id="rect10524"
         style="color:#000000;fill:none;stroke:none;stroke-width:1;marker:none;display:inline" />
      <path
         d="m 287.5,577.40086 c -0.5,-8 0.6365,-12.357 3.9649,-15.4022 2.9375,-2.6875 7.5351,-4.5978 15.5351,-4.0978"
         id="path13970"
         style="fill:none;stroke:url(#linearGradient3542);stroke-width:1px;stroke-linecap:butt;stroke-linejoin:miter;stroke-opacity:1"
         inkscape:connector-curvature="0" />
      <rect
         width="4"
         height="4"
         x="289"
         y="559.36218"
         id="rect10534"
         style="color:#000000;fill:url(#linearGradient3544);fill-opacity:1;fill-rule:evenodd;stroke:none;stroke-width:0.99999958;marker:none;display:inline" />
      <rect
         width="3"
         height="3"
         x="286"
         y="575.36218"
         id="rect10541"
         style="color:#000000;fill:url(#linearGradient4346);fill-opacity:1;fill-rule:evenodd;stroke:none;stroke-width:0.99999952;marker:none;display:inline" />
      <path
         d="m 294,564.36218 7.8,14.03868 5.2,-5.26451 -13,-8.77417 z"
         id="path10543"
         style="fill:url(#linearGradient3548);fill-opacity:1;fill-rule:evenodd;stroke:none"
         inkscape:connector-curvature="0" />
      <use
         transform="translate(18.999873,-19.00036)"
         id="use5791"
         style="fill:url(#linearGradient3550);fill-opacity:1;stroke:none"
         x="0"
         y="0"
         width="1250"
         height="1250"
         xlink:href="#rect10541" />
    </g>
    <g
       transform="matrix(1.249998,0,0,1.2499994,-356.44667,66.900042)"
       id="draw-rectangle">
      <rect
         width="24"
         height="24"
         x="285"
         y="620.36218"
         id="rect14154"
         style="fill:none;stroke:none" />
      <path
         d="m 287,110 0,20 20,0 0,-20 -20,0 z m 2,2 16,0 0,16 -16,0 0,-16 z"
         transform="translate(0,512.36218)"
         id="rect14156"
         style="fill:url(#linearGradient3540);fill-opacity:1;stroke:none"
         inkscape:connector-curvature="0" />
    </g>
    <g
       transform="matrix(1.249998,0,0,1.2499994,-356.44667,-1.8500224)"
       id="draw-ellipse">
      <rect
         width="24"
         height="23.999998"
         x="285"
         y="651.36218"
         id="rect14195"
         style="fill:none;stroke:none" />
      <path
         d="m 297,652.36218 c -6.07514,0 -11,4.92487 -11,11 0,6.07513 4.92486,11 11,11 6.07513,0 11,-4.92487 11,-11 0,-6.07513 -4.92487,-11 -11,-11 z m 0,1.83333 c 5.06261,0 9.16667,4.10406 9.16667,9.16667 0,5.06261 -4.10406,9.16667 -9.16667,9.16667 -5.06261,0 -9.16667,-4.10406 -9.16667,-9.16667 0,-5.06261 4.10406,-9.16667 9.16667,-9.16667 z"
         id="path14203"
         style="fill:url(#linearGradient3538);fill-opacity:1;stroke:none"
         inkscape:connector-curvature="0" />
    </g>
    <g
       transform="matrix(0.90013776,0,0,0.8929798,-117.7337,538.64145)"
       id="g14408"
       style="fill:none" />
    <g
       transform="matrix(1.249996,0,0,1.2401211,-356.44843,-19.494995)"
       id="draw-freehand">
      <g
         transform="matrix(1.5000024,0,0,1.5072934,163.50137,476.64272)"
         id="g18432"
         style="display:inline">
        <path
           d="m -146.84375,-39 -1.875,2 c 1.32873,0.02586 2.66512,1.211567 2.71875,2.4375 l 2,-2 c -0.0554,-1.26532 -1.47439,-2.4884 -2.84375,-2.4375 z"
           transform="translate(241.0002,217)"
           id="path18434"
           style="fill:url(#linearGradient3532);fill-opacity:1;fill-rule:evenodd;stroke:none"
           inkscape:connector-curvature="0" />
        <rect
           width="15.999998"
           height="16"
           rx="0"
           ry="0"
           x="81.000198"
           y="177"
           id="rect18437"
           style="fill:none;stroke:none" />
        <path
           d="m 83.63056,189.03603 7.520215,-8.03448 c 1.369356,-0.0509 2.794069,1.16344 2.849425,2.42876 l -7.490043,7.79401 -4.509957,1.77567 z"
           id="path18439"
           style="fill:url(#linearGradient3534);fill-opacity:1;fill-rule:evenodd;stroke:none"
           inkscape:connector-curvature="0" />
      </g>
      <path
         d="m 288.3729,756.22908 c -5.78579,-2.75077 -0.31811,-1.46949 1.01533,-2.97092 0.84339,-0.94957 -0.54949,-2.0898 -1.32231,-2.70923 -0.81184,-0.65065 -1.63819,-1.72421 -1.73632,-2.76441 -0.13425,-1.42191 1.13517,-2.51278 1.93315,-2.9631 0.84041,-0.47423 2.18544,-0.83598 3.3965,-0.63342 1.30549,0.21841 2.70672,0.94358 3.14915,1.38915"
         id="path18441"
         style="fill:none;stroke:url(#linearGradient3536);stroke-width:1.53669274;stroke-linecap:round;stroke-linejoin:round;stroke-miterlimit:4;stroke-opacity:1;stroke-dasharray:none"
         inkscape:connector-curvature="0" />
    </g>
    <g
       transform="matrix(1.249998,0,0,1.2567156,-356.44667,-40.7814)"
       id="draw-path">
      <path
         d="m 299.31051,788.81718 -1.58446,4.50902 c -0.41924,1.22466 1.29973,1.8792 1.73578,0.6094 l 1.75986,-4.47458 z"
         id="path6331"
         style="fill:url(#linearGradient3518);fill-opacity:1;fill-rule:evenodd;stroke:none"
         inkscape:connector-curvature="0" />
      <path
         d="m 298.30533,782.76082 0.79348,1.18121 5.92422,2.42288 1.5611,-0.50918 1.98917,-5.50238 c -2.5,0 -0.5,-6.00004 -7,-6.00004 l -3.26797,8.40751 z"
         id="path6315"
         style="fill:url(#linearGradient3520);fill-opacity:1;fill-rule:evenodd;stroke:none"
         inkscape:connector-curvature="0" />
      <path
         d="m 299,785.36218 -0.70159,2 5,1.89918 L 304,787.36218 z"
         id="path5211"
         style="fill:url(#linearGradient3522);fill-opacity:1;fill-rule:evenodd;stroke:none"
         inkscape:connector-curvature="0" />
      <rect
         width="24"
         height="23.862864"
         x="285"
         y="774.36218"
         id="rect6268"
         style="color:#000000;fill:none;stroke:none;stroke-width:1;marker:none;display:inline" />
      <path
         d="m 289.15697,793.88299 c 11.66133,-1.93887 -1.67778,-18.04157 -1.67778,-18.04157 l 11.04162,0"
         id="path6270"
         style="fill:none;stroke:url(#linearGradient3524);stroke-width:0.95838439;stroke-miterlimit:4;stroke-opacity:1;stroke-dasharray:none"
         inkscape:connector-curvature="0" />
      <path
         d="m 286,793.36218 4,0 0,4 -4,0 z"
         id="rect6272"
         style="color:#000000;fill:url(#linearGradient3526);fill-opacity:1;fill-rule:evenodd;stroke:none;stroke-width:1.00286913;marker:none;display:inline"
         inkscape:connector-curvature="0" />
      <path
         d="m 287,795.87978 9,0"
         id="path18601"
         style="fill:none;stroke:url(#linearGradient3528);stroke-width:1.11732554;stroke-miterlimit:4;stroke-opacity:1;stroke-dasharray:none"
         inkscape:connector-curvature="0" />
      <rect
         width="4"
         height="4"
         x="286"
         y="262"
         transform="translate(0,512.36218)"
         id="rect18603"
         style="fill:url(#linearGradient3530);fill-opacity:1;stroke:none" />
    </g>
    <g
       transform="matrix(1.2499981,0,0,1.2499995,-356.4467,-83.091742)"
       id="draw-text">
      <rect
         width="24"
         height="24"
         x="285"
         y="836.36218"
         id="rect74840-4"
         style="fill:none;stroke:none" />
      <path
         d="m 291.10714,838.36218 -6.07143,20 3.96429,0 c 0,0 0,0 1.45732,-5.00001 l 6.58537,0 1.99302,5.00001 3.96429,0 -6.60714,-20 z m 2.64286,4.49999 2.67206,7.5 -5.28571,0 z"
         id="path74842-5"
         style="fill:url(#linearGradient3510);fill-opacity:1;stroke:none"
         inkscape:connector-curvature="0" />
      <path
         d="m 304,858.36218 4,0 0,1 -1,0 -1,-1 -1,1 -1,0 z"
         id="rect18162"
         style="fill:url(#linearGradient3512);fill-opacity:1;stroke:none"
         inkscape:connector-curvature="0" />
      <path
         d="m 304,837.36218 1,0 1,1 1,-1 1,0 0,1 -4,0 z"
         id="rect18164"
         style="fill:url(#linearGradient3514);fill-opacity:1;stroke:none"
         inkscape:connector-curvature="0" />
      <rect
         width="2"
         height="20"
         x="305"
         y="838.36218"
         id="rect18166"
         style="fill:url(#linearGradient3516);fill-opacity:1;stroke:none" />
    </g>
    <g
       transform="matrix(1.2499981,0,0,1.2499995,-356.4467,-91.84164)"
       id="draw-connector">
      <path
         d="m 300.45883,870.36397 a 0.49812831,0.49971419 0 0 0 -0.24904,0.90563 l 4.794,3.84117 0,7.7448 a 0.49812831,0.49971419 0 1 0 0.99616,0 l 0,-7.99463 a 0.49812831,0.49971419 0 0 0 -0.18678,-0.37475 l -4.98078,-3.99731 a 0.49812831,0.49971419 0 0 0 -0.37356,-0.12491 z"
         id="path18392"
         style="font-size:medium;font-style:normal;font-variant:normal;font-weight:normal;font-stretch:normal;text-indent:0;text-align:start;text-decoration:none;line-height:normal;letter-spacing:normal;word-spacing:normal;text-transform:none;direction:ltr;block-progression:tb;writing-mode:lr-tb;text-anchor:start;baseline-shift:baseline;color:#000000;fill:url(#linearGradient3500);fill-opacity:1;stroke:none;stroke-width:1;marker:none;visibility:visible;display:inline;overflow:visible;enable-background:accumulate;font-family:Sans;-inkscape-font-specification:Sans"
         inkscape:connector-curvature="0" />
      <path
         d="m 293.48257,876.36251 a 0.50140228,0.47059049 20.550428 0 0 -0.45723,0.27348 L 290,882.66193 a 0.50574059,0.47466221 20.550433 1 0 0.9093,0.44166 l 3.02534,-6.02593 a 0.50140228,0.47059049 20.550428 0 0 -0.45207,-0.71515 z"
         id="path5856"
         style="font-size:medium;font-style:normal;font-variant:normal;font-weight:normal;font-stretch:normal;text-indent:0;text-align:start;text-decoration:none;line-height:normal;letter-spacing:normal;word-spacing:normal;text-transform:none;direction:ltr;block-progression:tb;writing-mode:lr-tb;text-anchor:start;baseline-shift:baseline;color:#000000;fill:url(#linearGradient3502);fill-opacity:1;stroke:none;stroke-width:1;marker:none;visibility:visible;display:inline;overflow:visible;enable-background:accumulate;font-family:Sans;-inkscape-font-specification:Sans"
         inkscape:connector-curvature="0" />
      <g
         transform="translate(280.4917,662.85248)"
         id="g5746">
        <rect
           width="7.9986801"
           height="6.9991221"
           x="10.5083"
           y="205.5097"
           id="rect5710"
           style="color:#000000;fill:url(#linearGradient4348);fill-opacity:1;stroke:none;stroke-width:1;marker:none;display:inline" />
      </g>
      <use
         transform="translate(-4.99868,15.99998)"
         id="use5750"
         style="fill:url(#linearGradient4350);fill-opacity:1;stroke:none"
         x="0"
         y="0"
         width="1250"
         height="1250"
         xlink:href="#g5746" />
      <use
         transform="translate(15,8.780086e-4)"
         id="use5757"
         style="fill:url(#linearGradient3508);fill-opacity:1"
         x="0"
         y="0"
         width="1250"
         height="1250"
         xlink:href="#use5750" />
      <rect
         width="24"
         height="23.999998"
         x="285"
         y="867.36218"
         id="rect18379"
         style="fill:none;stroke:none" />
    </g>
    <g
       transform="matrix(1.2499981,0,0,1.2499995,-356.4467,-216.84149)"
       id="draw-eraser">
      <rect
         width="24"
         height="24"
         rx="0.9956156"
         ry="0"
         x="285"
         y="991.36218"
         id="rect29999"
         style="fill:none;stroke:none" />
      <path
         d="m 301.73437,992.86218 c -0.11827,0.0242 -0.23924,0.1044 -0.32812,0.1875 l -6.42188,6 6.04688,6.51562 6.23437,-5.8125 c 0.35549,-0.33216 0.26759,-1.02424 -0.1875,-1.54687 l -4.17187,-4.82813 c -0.34131,-0.39198 -0.81704,-0.58813 -1.17188,-0.51562 z"
         id="path30001"
         style="fill:url(#linearGradient3492);fill-opacity:1;stroke:none"
         inkscape:connector-curvature="0" />
      <path
         d="m 293.25,1000.6903 -3.51563,3.2813 c -0.35548,0.3321 -0.31446,1.0242 0.14063,1.5468 l 4.21875,4.8282 c 0.45508,0.5226 1.09764,0.6602 1.45312,0.3281 l 3.70313,-3.4688 -6,-6.5156 z"
         id="path30003"
         style="fill:url(#linearGradient3494);fill-opacity:1;stroke:none"
         inkscape:connector-curvature="0" />
      <path
         d="m 298.05,1012.3622 c -0.5817,0 -1.05,0.446 -1.05,1 0,0.554 0.4683,1 1.05,1 l 2.1,0 6.3,0 1.05,0 0,-1 0,-1 -1.05,0 -6.3,0 -2.1,0 z"
         id="path30005"
         style="fill:url(#linearGradient3496);fill-opacity:1;stroke:none"
         inkscape:connector-curvature="0" />
      <path
         d="m 290.71667,1012.3622 c 0.71096,0 1.28333,0.446 1.28333,1 0,0.554 -0.57237,1 -1.28333,1 -3.85,0 -3.66667,0 -4.21667,0 l 0,-1 0,-1 c 0,0 0.36667,0 4.21667,0 z"
         id="path30007"
         style="fill:url(#linearGradient3498);fill-opacity:1;stroke:none"
         inkscape:connector-curvature="0" />
    </g>
    <use
       transform="matrix(0.692914,0,0,0.70953374,-83.503995,365.24047)"
       id="use4586"
       x="0"
       y="0"
       width="1250"
       height="1250"
       xlink:href="#g5772" />
    <use
       transform="matrix(0.695835,0,0,0.741921,-99.509806,359.82667)"
       id="use4586-2"
       x="0"
       y="0"
       width="1250"
       height="1250"
       xlink:href="#g5772" />
    <use
       transform="matrix(0.695835,0,0,0.741921,-55.509806,357.32667)"
       id="use4589"
       x="0"
       y="0"
       width="1250"
       height="1250"
       xlink:href="#g5772" />
    <use
       transform="matrix(0.62897517,0,0,1.1624311,19.249305,255.1048)"
       id="use4592"
       x="0"
       y="0"
       width="1250"
       height="1250"
       xlink:href="#g5772" />
    <use
       transform="translate(772.31989,383.91833)"
       id="use3738"
       x="0"
       y="0"
       width="1250"
       height="1250"
       xlink:href="#rect10675" />
    <use
       transform="translate(773.28629,400.64084)"
       id="use4635"
       x="0"
       y="0"
       width="1250"
       height="1250"
       xlink:href="#use5758" />
    <use
       transform="translate(769.27139,324.56317)"
       id="use9872"
       x="0"
       y="0"
       width="1250"
       height="1250"
       xlink:href="#g6043" />
    <use
       transform="translate(814.30319,384.86487)"
       id="use10185"
       x="0"
       y="0"
       width="1250"
       height="1250"
       xlink:href="#rect10675" />
    <use
       transform="translate(802.30319,396.86487)"
       id="use10187"
       x="0"
       y="0"
       width="1250"
       height="1250"
       xlink:href="#rect10675" />
    <use
       transform="translate(788.31994,318.52097)"
       id="use9872-0"
       x="0"
       y="0"
       width="1250"
       height="1250"
       xlink:href="#g6043" />
    <use
       transform="translate(833.35174,378.82267)"
       id="use10185-8"
       x="0"
       y="0"
       width="1250"
       height="1250"
       xlink:href="#rect10675" />
    <use
       transform="translate(821.35174,390.82267)"
       id="use10187-8"
       x="0"
       y="0"
       width="1250"
       height="1250"
       xlink:href="#rect10675" />
    <use
       transform="matrix(1.1377421,0,0,1.1399698,580.98705,388.47222)"
       id="use5845-6"
       style="stroke:url(#linearGradient3698);stroke-opacity:1"
       x="0"
       y="0"
       width="1250"
       height="1250"
       xlink:href="#use5756-0-3" />
    <use
       transform="matrix(1.1377421,0,0,1.1399698,575.98736,395.70069)"
       id="use5845-6-1"
       style="stroke:url(#linearGradient3700);stroke-opacity:1"
       x="0"
       y="0"
       width="1250"
       height="1250"
       xlink:href="#use5756-0-3" />
    <use
       transform="matrix(1.1377421,0,0,1.1399698,588.58011,399.35095)"
       id="use5845-6-1-9"
       style="stroke:url(#linearGradient3702);stroke-opacity:1"
       x="0"
       y="0"
       width="1250"
       height="1250"
       xlink:href="#use5756-0-3" />
    <g
       transform="translate(127.31009,403.75449)"
       id="g31444">
      <g
         transform="translate(0,20)"
         id="g31446">
        <g
           transform="translate(0,19.96825)"
           id="g31448">
          <g
             transform="matrix(1,0,0,0.99801946,0,21.076212)"
             id="g31450" />
        </g>
      </g>
    </g>
    <text
       x="-273.68991"
       y="760.61664"
       id="text19288"
       xml:space="preserve"
       style="font-size:40px;font-style:normal;font-weight:normal;line-height:125%;letter-spacing:0px;word-spacing:0px;fill:#000000;fill-opacity:1;stroke:none;font-family:Sans"
       sodipodi:linespacing="125%"><tspan
         x="-273.68991"
         y="760.61664"
         id="tspan19292" /></text>
    <g
       transform="matrix(0.61234903,0,0,0.62198103,-49.687417,542.17451)"
       id="g47572">
      <path
         d="m 154.85639,269.2728 a 26.162951,22.627417 0 1 1 -52.3259,0 26.162951,22.627417 0 1 1 52.3259,0 z"
         transform="matrix(0.8819094,0,0,-1.0039154,-8.1799371,825.29878)"
         id="path46848"
         style="fill:none;stroke:#ffffff;stroke-width:3;stroke-miterlimit:4;stroke-opacity:1;stroke-dasharray:none;marker-start:none"
         inkscape:connector-curvature="0" />
      <path
         d="m 260.21529,298.26416 a 24.04163,23.334522 0 1 1 -48.08326,0 l 24.04163,0 z"
         transform="matrix(0.57587279,0,0,0.54335223,-30.689971,396.78177)"
         id="path47564"
         style="fill:none;stroke:#ffffff;stroke-width:3;stroke-miterlimit:4;stroke-opacity:1;stroke-dasharray:none"
         inkscape:connector-curvature="0" />
    </g>
    <g
       transform="matrix(0.60554745,0,0,0.60554811,-103.0957,302.49386)"
       id="g59243"
       style="stroke-width:3;stroke-miterlimit:4;stroke-dasharray:none">
      <g
         transform="matrix(0.15598749,0,0,0.15416447,162.20747,739.92322)"
         id="g59216"
         style="stroke:#ffffff;stroke-width:19.34568977;stroke-miterlimit:4;stroke-opacity:1;stroke-dasharray:none">
        <line
           style="fill:none;stroke:#ffffff;stroke-width:19.34568977;stroke-linecap:round;stroke-linejoin:round;stroke-miterlimit:4;stroke-opacity:1;stroke-dasharray:none"
           x1="343.39999"
           y1="161.89999"
           x2="343.70001"
           y2="161.3"
           id="line59218" />
        <path
           d="m 265.2,330.9 c 6.1,-12.3 13.2,-25.2 21.6,-38.4 8.3,-13.2 16.3,-32.3 24.1,-57.6 7.7,-25.2 12.5,-38.6 14.2,-40.1 l 18.3,-32.7 v -0.2"
           id="path59220"
           style="fill:none;stroke:#ffffff;stroke-width:19.34568977;stroke-linecap:round;stroke-linejoin:round;stroke-miterlimit:4;stroke-opacity:1;stroke-dasharray:none"
           inkscape:connector-curvature="0" />
        <polyline
           style="fill:none;stroke:#ffffff;stroke-width:19.34568977;stroke-linecap:round;stroke-linejoin:round;stroke-miterlimit:4;stroke-opacity:1;stroke-dasharray:none"
           points="343.4,161.9    343.4,161.9 343.7,161.3  "
           id="polyline59222" />
        <path
           d="m 117.2,187.5 c -2.4,-5.3 -6.9,-10.7 -13.6,-15.8 -7,-5.4 -13.1,-8.1 -18.2,-8.1 -9,0 -15.8,3.2 -20.4,9.6 -3.9,5.4 -5.9,12.5 -5.9,21.3 0,6.7 3.7,15.5 10.9,26.3 8.2,12.2 19.2,24 33,35.4 11.7,9.5 20.8,19.8 27.3,30.9 6.5,10.9 9.8,21.3 9.8,31 0,0.8 -0.2,3 -0.6,6.5 -0.3,3.3 -0.5,5.2 -0.7,5.9"
           id="path59224"
           style="fill:none;stroke:#ffffff;stroke-width:19.34568977;stroke-linecap:round;stroke-linejoin:round;stroke-miterlimit:4;stroke-opacity:1;stroke-dasharray:none"
           inkscape:connector-curvature="0" />
        <path
           d="m 117.2,187.5 c 0.6,1.8 4,9.7 10.3,23.3"
           id="path59226"
           style="fill:none;stroke:#ffffff;stroke-width:19.34568977;stroke-linecap:round;stroke-linejoin:round;stroke-miterlimit:4;stroke-opacity:1;stroke-dasharray:none"
           inkscape:connector-curvature="0" />
        <path
           d="m 343.7,161.3 11.2,-16.6 c 0.5,-1.2 1.4,-4.4 2.5,-9.6 0.5,-7.3 -1.7,-13.5 -6.8,-18.9 -4.9,-5 -11,-7.9 -18.2,-8.5 -5,-0.4 -9.3,0.8 -13.1,3.5 -3.5,3.3 -6.4,6 -8.8,8 l -32.7,44.7 30,-87 c 0.1,-0.3 0.3,-1.3 0.6,-3.2 0.2,-1.8 0.4,-3.1 0.4,-3.5 0,-7 -2.5,-13 -7.4,-18.1 -5.1,-5.3 -11.7,-8 -19.7,-8 -4.9,0 -9.5,1.6 -13.9,4.8 -4.8,3.4 -8.2,8 -10.2,13.7 l -31.5,86.5 c -0.8,-12.8 -2.1,-33.3 -4,-61.7 -1.2,-16.1 -1.7,-25.8 -1.4,-28.9 0.4,-6.4 -1.4,-12.6 -5.5,-18.6 -5,-7.3 -11.9,-10.9 -20.8,-10.9 -5,0 -9.6,1.1 -13.7,3.5 -6,3.4 -9.9,8.8 -11.7,16.3 l -1.8,98.9 -31.557,-72.773 C 134.155,70.839 132.7,66.1 127.6,61.5 c -5.3,-4.8 -11,-7.1 -17.1,-7.1 -5.6,0 -10.9,1.4 -15.9,4.3 -7.6,4.5 -11.3,11.5 -11.3,21.1 0,1.3 0.2,3.5 0.6,6.3 l 33.3,101.4"
           id="path59228"
           style="fill:none;stroke:#ffffff;stroke-width:19.34568977;stroke-linecap:round;stroke-linejoin:round;stroke-miterlimit:4;stroke-opacity:1;stroke-dasharray:none"
           inkscape:connector-curvature="0" />
      </g>
    </g>
    <g
       id="g4190"
       transform="matrix(0.9795239,0,0,0.97979073,0.30010834,21.569931)">
      <path
         inkscape:connector-curvature="0"
         id="path4186"
         d="M 28.613043,1053.5519 0.99245473,1081.1725"
         style="fill:none;stroke:#ffffff;stroke-width:3;stroke-linecap:butt;stroke-linejoin:miter;stroke-miterlimit:4;stroke-opacity:1;stroke-dasharray:none" />
      <path
         inkscape:connector-curvature="0"
         id="path4188"
         d="m 1.272914,1053.8324 27.059669,27.0596"
         style="fill:none;stroke:#ffffff;stroke-width:2.94033074;stroke-linecap:butt;stroke-linejoin:miter;stroke-miterlimit:4;stroke-opacity:1;stroke-dasharray:none" />
    </g>
  </g>
</svg>
